<svg id="visual" viewBox="0 0 900 600" width="900" height="600" xmlns="http://www.w3.org/2000/svg" xmlns:xlink="http://www.w3.org/1999/xlink" version="1.1"><path d="M0 513L21.5 497.2C43 481.3 86 449.7 128.8 447.5C171.7 445.3 214.3 472.7 257.2 485.2C300 497.7 343 495.3 385.8 481C428.7 466.7 471.3 440.3 514.2 443.8C557 447.3 600 480.7 642.8 491C685.7 501.3 728.3 488.7 771.2 476.2C814 463.7 857 451.3 878.5 445.2L900 439L900 601L878.5 601C857 601 814 601 771.2 601C728.3 601 685.7 601 642.8 601C600 601 557 601 514.2 601C471.3 601 428.7 601 385.8 601C343 601 300 601 257.2 601C214.3 601 171.7 601 128.8 601C86 601 43 601 21.5 601L0 601Z" fill="#e66767" stroke-linecap="round" stroke-linejoin="miter"></path></svg>